<svg width="466" height="506" viewBox="0 0 466 506" fill="none" xmlns="http://www.w3.org/2000/svg">
<path d="M96.7477 115.448L176.637 62.2602" stroke="url(#paint0_linear_47_264)" stroke-width="0.687079"/>
<path d="M96.8938 407.143L176.784 460.331" stroke="url(#paint1_linear_47_264)" stroke-width="0.687079"/>
<path d="M383.938 115.417L304.048 62.2297" stroke="url(#paint2_linear_47_264)" stroke-width="0.687079"/>
<path d="M284.754 134.005L263.115 124.525" stroke="url(#paint3_linear_47_264)" stroke-width="0.687079"/>
<path d="M180.322 134.005L201.961 124.525" stroke="url(#paint4_linear_47_264)" stroke-width="0.687079"/>
<path d="M319.799 214.526L384.916 178.698" stroke="url(#paint5_linear_47_264)" stroke-width="0.687079"/>
<path d="M145.812 310.96L80.6956 346.789" stroke="url(#paint6_linear_47_264)" stroke-width="0.687079"/>
<path d="M145.812 214.526L80.6956 178.698" stroke="url(#paint7_linear_47_264)" stroke-width="0.687079"/>
<path d="M319.799 310.96L384.916 346.789" stroke="url(#paint8_linear_47_264)" stroke-width="0.687079"/>
<path d="M423.33 313.481L423.784 217.507" stroke="url(#paint9_linear_47_264)" stroke-width="0.687079"/>
<path d="M232.871 434.704L233.206 363.857" stroke="url(#paint10_linear_47_264)" stroke-width="0.687079"/>
<path d="M232.871 168.536L232.98 145.366" stroke="url(#paint11_linear_47_264)" stroke-width="0.687079"/>
<path d="M279.605 192.388L292.399 173.07" stroke="url(#paint12_linear_47_264)" stroke-width="0.687079"/>
<path d="M183.153 192.388L170.359 173.07" stroke="url(#paint13_linear_47_264)" stroke-width="0.687079"/>
<path d="M232.871 86.0866L232.98 62.9168" stroke="url(#paint14_linear_47_264)" stroke-width="0.687079"/>
<path d="M42.5183 313.481L42.972 217.507" stroke="url(#paint15_linear_47_264)" stroke-width="0.687079"/>
<path d="M384.084 407.174L304.194 460.361" stroke="url(#paint16_linear_47_264)" stroke-width="0.687079"/>
<circle cx="151.883" cy="146.472" r="25.1533" fill="black" fill-opacity="0.7"/>
<circle cx="165.281" cy="377.33" r="25.1533" fill="black" fill-opacity="0.7"/>
<g filter="url(#filter0_b_47_264)">
<circle cx="422.953" cy="368.189" r="30.1839" fill="black" fill-opacity="0.7"/>
</g>
<path d="M432.136 362.57C431.498 362.232 430.632 362.232 429.903 362.57L424.662 365.401L421.108 367.218L416.004 370.09C415.366 370.428 414.5 370.428 413.771 370.09L409.76 367.851C409.122 367.513 408.621 366.795 408.621 366.035V361.683C408.621 361.007 408.986 360.289 409.76 359.867L413.725 357.712C414.363 357.374 415.229 357.374 415.958 357.712L419.968 359.951C420.606 360.289 421.108 361.007 421.108 361.768V364.641L424.662 362.739V359.782C424.662 359.106 424.298 358.388 423.523 357.965L416.095 353.91C415.457 353.572 414.591 353.572 413.862 353.91L406.206 358.05C405.431 358.388 405.066 359.106 405.066 359.782V367.936C405.066 368.612 405.431 369.33 406.206 369.752L413.725 373.808C414.363 374.146 415.229 374.146 415.958 373.808L421.108 371.02L424.662 369.119L429.812 366.33C430.45 365.992 431.316 365.992 432.045 366.33L436.055 368.485C436.693 368.823 437.194 369.541 437.194 370.302V374.611C437.194 375.287 436.83 376.005 436.055 376.427L432.136 378.582C431.498 378.92 430.632 378.92 429.903 378.582L425.893 376.427C425.255 376.089 424.753 375.371 424.753 374.611V371.823L421.199 373.724V376.596C421.199 377.272 421.563 377.991 422.338 378.413L429.903 382.469C430.541 382.807 431.407 382.807 432.136 382.469L439.701 378.455C440.339 378.117 440.84 377.399 440.84 376.639V368.443C440.84 367.767 440.475 367.049 439.701 366.626L432.136 362.57Z" fill="#8248E5"/>
<g filter="url(#filter1_b_47_264)">
<circle cx="232.906" cy="475.51" r="30.1839" fill="black" fill-opacity="0.7"/>
</g>
<g filter="url(#filter2_b_47_264)">
<circle cx="42.8588" cy="368.189" r="30.1839" fill="black" fill-opacity="0.7"/>
</g>
<ellipse cx="42.1933" cy="368.399" rx="17.9611" ry="17.3443" fill="white"/>
<path fill-rule="evenodd" clip-rule="evenodd" d="M42.5038 388.403C54.0387 388.403 63.3895 379.374 63.3895 368.235C63.3895 357.096 54.0387 348.066 42.5038 348.066C30.969 348.066 21.6181 357.096 21.6181 368.235C21.6181 379.374 30.969 388.403 42.5038 388.403ZM36.1931 377.372H31.2935C30.1319 377.372 29.551 377.372 29.2031 377.155C28.8272 376.92 28.59 376.526 28.5649 376.095C28.5416 375.696 28.8293 375.209 29.4046 374.236L29.4049 374.235L40.1323 356.087C40.7161 355.1 41.0081 354.606 41.3795 354.422C41.7808 354.223 42.2567 354.223 42.6582 354.421C43.03 354.604 43.3227 355.098 43.908 356.085L46.3821 360.256L46.3822 360.256C46.8078 360.974 47.0206 361.333 47.1142 361.711C47.2161 362.123 47.2163 362.553 47.1148 362.965C47.0216 363.344 46.8091 363.703 46.384 364.421L39.9691 375.257C39.5379 375.986 39.3223 376.35 39.0268 376.623C38.7053 376.919 38.3153 377.137 37.8891 377.26C37.4974 377.372 37.0627 377.372 36.1931 377.372ZM53.6734 377.372H47.9929C46.8207 377.372 46.2345 377.372 45.8856 377.153C45.5085 376.916 45.272 376.519 45.2498 376.086C45.2291 375.685 45.5241 375.196 46.114 374.219L48.9496 369.521C49.5321 368.556 49.8234 368.073 50.1922 367.893C50.5907 367.697 51.0619 367.697 51.4608 367.892C51.8299 368.072 52.1218 368.554 52.7056 369.518L52.7057 369.518L55.5507 374.216C56.1429 375.194 56.439 375.683 56.4188 376.085C56.3969 376.518 56.1606 376.916 55.7833 377.153C55.4344 377.372 54.8474 377.372 53.6734 377.372Z" fill="#D74F4A"/>
<g filter="url(#filter3_b_47_264)">
<circle cx="366.498" cy="260.31" r="25.1533" fill="black" fill-opacity="0.7"/>
</g>
<circle cx="42.8588" cy="154.665" r="30.1839" fill="black" fill-opacity="0.7"/>
<path d="M42.8584 146.342L36.3454 152.638L32.5557 148.975L42.8584 139.015L53.1646 148.978L49.3748 152.641L42.8584 146.342Z" fill="#F0B90A"/>
<path d="M33.6691 155.224L29.8794 151.561L26.0897 155.224L29.8794 158.888L33.6691 155.224Z" fill="#F0B90A"/>
<path d="M42.8584 164.107L36.3454 157.812L32.5502 161.47L32.5555 161.475L42.8584 171.435L53.1646 161.472L53.1664 161.47L49.3746 157.809L42.8584 164.107Z" fill="#F0B90A"/>
<path d="M55.838 158.889L59.6274 155.226L55.8377 151.563L52.048 155.226L55.838 158.889Z" fill="#F0B90A"/>
<path d="M46.7039 155.223H46.7054L42.8599 151.505L39.0177 155.23L42.8599 158.944L46.7054 155.227L46.7074 155.225L46.7039 155.223Z" fill="#F0B90A"/>
<g filter="url(#filter4_b_47_264)">
<circle cx="301.658" cy="376.574" r="25.1533" fill="black" fill-opacity="0.7"/>
</g>
<path d="M310.372 366.535L302.897 362.752C302.071 362.339 300.849 362.339 300.023 362.752L292.548 366.535C292.297 366.673 292.081 366.845 291.902 367.051H291.578V387.483H291.902C292.045 387.689 292.261 387.861 292.548 387.999L300.023 391.782C300.418 391.989 300.957 392.092 301.46 392.092C301.963 392.092 302.502 391.989 302.897 391.782L310.372 387.999C310.659 387.861 310.875 387.689 311.019 387.483H311.342V367.051H311.019C310.875 366.845 310.659 366.673 310.372 366.535ZM293.375 369.528L299.16 372.451L293.375 375.375V369.528ZM300.562 373.655V380.431L293.878 377.026L300.562 373.655ZM302.358 373.655L309.042 377.061L302.358 380.466V373.655ZM303.76 372.451L309.545 369.528V375.375L303.76 372.451ZM300.849 364.265C301.137 364.128 301.748 364.128 302.035 364.265L309.042 367.808L302.071 371.351C301.784 371.488 301.173 371.488 300.885 371.351L293.842 367.808L300.849 364.265ZM302.071 390.269C301.784 390.406 301.173 390.406 300.885 390.269L293.842 386.726L293.375 386.244V378.746L300.023 382.117C300.418 382.323 300.957 382.426 301.46 382.426C301.963 382.426 302.502 382.323 302.897 382.117L309.545 378.746V386.244L309.078 386.726L302.071 390.269Z" fill="#00B2FF"/>
<path d="M311.915 363.921L311.736 363.818L310.801 365.297L310.981 365.4C312.239 366.122 312.562 366.294 312.562 367.842H314.359C314.359 365.434 313.496 364.815 311.915 363.921Z" fill="#00B2FF"/>
<path d="M290.212 386.381H288.416C288.416 388.789 289.278 389.408 290.859 390.303L291.039 390.406L291.973 388.927L291.793 388.824C290.5 388.101 290.212 387.929 290.212 386.381Z" fill="#00B2FF"/>
<g filter="url(#filter5_b_47_264)">
<circle cx="232.906" cy="30.5765" r="30.1839" fill="black" fill-opacity="0.4"/>
</g>
<path d="M232.462 40.3111V50.6612L245.753 32.8073L232.462 40.3111Z" fill="#7B79EC"/>
<path d="M232.462 24.6296V37.9294L245.753 30.4256L232.462 24.6296Z" fill="#7B79EC"/>
<path d="M232.462 9.31262V24.6307L245.753 30.4268L232.462 9.31262Z" fill="#7B79EC"/>
<path d="M232.462 40.3111V50.6612L219.171 32.8073L232.462 40.3111Z" fill="#7B79EC"/>
<path d="M232.462 24.6296V37.9294L219.171 30.4256L232.462 24.6296Z" fill="#7B79EC"/>
<path d="M232.462 9.31317V24.6313L219.171 30.4273L232.462 9.31317Z" fill="#7B79EC"/>
<g filter="url(#filter6_b_47_264)">
<circle cx="422.953" cy="154.665" r="30.1839" fill="black" fill-opacity="0.4"/>
</g>
<g filter="url(#filter7_b_47_264)">
<circle r="25.1533" transform="matrix(-1 0 0 1 311.286 146.472)" fill="black" fill-opacity="0.7"/>
</g>
<g filter="url(#filter8_b_47_264)">
<circle r="25.1533" transform="matrix(-1 0 0 1 232.958 115.553)" fill="black" fill-opacity="0.7"/>
</g>
<g filter="url(#filter9_b_47_264)">
<circle cx="99.3139" cy="260.31" r="25.1533" fill="black" fill-opacity="0.7"/>
</g>
<path d="M115.881 268.019C115.881 268.864 115.65 269.694 115.212 270.425C114.774 271.157 114.143 271.763 113.385 272.185L101.692 278.673C100.938 279.091 100.083 279.311 99.2131 279.311C98.3432 279.311 97.4885 279.091 96.7342 278.673L85.0417 272.185C84.2829 271.764 83.6525 271.157 83.2141 270.425C82.7758 269.694 82.545 268.864 82.5449 268.019V255.082C82.5449 254.237 82.7757 253.406 83.214 252.675C83.6523 251.944 84.2827 251.337 85.0414 250.916L96.7339 244.428C97.4882 244.009 98.3429 243.789 99.2129 243.789C100.083 243.789 100.938 244.009 101.692 244.428L113.384 250.916C114.143 251.337 114.773 251.944 115.212 252.675C115.65 253.406 115.881 254.236 115.881 255.082V268.019Z" fill="#1D86CC"/>
<path d="M97.7714 246.234L86.2281 252.672C85.7893 252.917 85.4249 253.269 85.1716 253.693C84.9183 254.116 84.785 254.597 84.7852 255.087L84.7924 267.977C84.7928 268.466 84.9261 268.946 85.1791 269.369C85.4321 269.792 85.7958 270.143 86.2338 270.388L97.7905 276.839C98.2292 277.084 98.7268 277.213 99.2334 277.213C99.74 277.213 100.238 277.084 100.676 276.839L112.22 270.403C112.658 270.158 113.023 269.806 113.276 269.382C113.529 268.959 113.663 268.478 113.662 267.989L113.655 255.098C113.655 254.609 113.522 254.129 113.269 253.706C113.016 253.283 112.652 252.932 112.214 252.687L100.657 246.236C100.218 245.991 99.7208 245.862 99.2143 245.862C98.7077 245.862 98.2101 245.991 97.7714 246.236V246.234Z" fill="white"/>
<path d="M93.9621 272.482C93.9798 272.398 94.0188 272.32 94.0754 272.254C97.5285 266.596 100.982 260.938 104.436 255.281C104.484 255.202 104.529 255.121 104.57 255.051C104.539 255 104.505 255.01 104.475 255.01C103 255.015 101.524 255.025 100.047 255.023C99.984 255.022 99.9221 255.039 99.8697 255.073C99.8172 255.107 99.7768 255.156 99.7538 255.213C98.6406 256.99 97.526 258.768 96.41 260.544C94.0458 264.311 91.6813 268.078 89.3166 271.844C89.2957 271.878 89.2738 271.91 89.2552 271.945C89.2134 272.023 89.1659 272.035 89.081 271.987C88.7141 271.778 88.3432 271.576 87.9533 271.359L98.4766 255.061C98.454 254.995 98.4074 255.011 98.3716 255.01C97.8076 254.994 97.2434 254.97 96.68 254.965C95.8884 254.943 95.0995 255.066 94.3553 255.327C93.6776 255.57 93.1017 256.021 92.7169 256.612C90.7942 259.508 88.8642 262.399 86.9269 265.286C86.8965 265.332 86.8642 265.377 86.8329 265.422C86.7219 265.422 86.7383 265.333 86.7281 265.272C86.7183 265.179 86.716 265.085 86.7212 264.992C86.7212 261.798 86.7326 258.605 86.711 255.412C86.6936 255.137 86.7621 254.863 86.9076 254.626C87.0532 254.389 87.2691 254.2 87.5274 254.082C90.0702 252.683 92.5965 251.254 95.131 249.84C96.2622 249.209 97.3969 248.584 98.5199 247.939C98.7311 247.803 98.9797 247.729 99.2341 247.729C99.4885 247.729 99.7371 247.803 99.9484 247.939C102.013 249.11 104.096 250.253 106.172 251.406C107.737 252.277 109.304 253.146 110.871 254.013C110.983 254.075 111.092 254.141 111.205 254.202C111.388 254.296 111.54 254.438 111.641 254.613C111.743 254.787 111.791 254.986 111.78 255.187C111.783 258.66 111.783 262.133 111.78 265.607C111.787 265.692 111.778 265.778 111.752 265.86C111.627 265.976 111.582 265.846 111.537 265.784C111.35 265.531 111.183 265.264 111.009 265.002C109.621 262.903 108.228 260.807 106.83 258.714C106.36 258.006 105.885 257.302 105.42 256.591C105.311 256.425 105.292 256.423 105.183 256.601C104.482 257.747 103.781 258.893 103.081 260.039C103.043 260.103 103.026 260.177 103.034 260.25C103.041 260.323 103.073 260.392 103.124 260.447C103.701 261.347 104.278 262.248 104.853 263.149L107.803 267.756C108.201 268.379 108.599 269.001 108.999 269.623C109.073 269.706 109.115 269.812 109.117 269.921C109.037 270.075 108.87 270.118 108.732 270.187C108.505 270.346 108.255 270.472 107.99 270.561C107.847 270.527 107.797 270.403 107.729 270.301C106.816 268.925 105.914 267.543 105.007 266.164C104.074 264.746 103.145 263.324 102.208 261.908C102.088 261.726 102.068 261.725 101.955 261.908C101.14 263.232 100.336 264.563 99.519 265.886C99.4772 265.948 99.4566 266.021 99.4602 266.095C99.4638 266.169 99.4915 266.24 99.5391 266.298C100.64 267.936 101.715 269.589 102.805 271.235C103.108 271.694 103.414 272.151 103.713 272.614C103.771 272.703 103.85 272.793 103.798 272.915C103.512 273.129 103.203 273.315 102.877 273.467C101.86 274.039 100.842 274.61 99.8237 275.18C99.6606 275.281 99.4705 275.335 99.2764 275.335C99.0822 275.335 98.8922 275.281 98.7291 275.18C97.2291 274.342 95.7265 273.507 94.221 272.677C94.1173 272.637 94.0275 272.57 93.9621 272.482Z" fill="#2D374B"/>
<path d="M111.707 265.895C111.709 265.809 111.713 265.724 111.713 265.638C111.713 262.173 111.715 258.707 111.717 255.242C111.73 255.032 111.679 254.823 111.57 254.64C111.461 254.457 111.3 254.31 111.106 254.214C107.337 252.128 103.571 250.037 99.8083 247.942C99.6388 247.835 99.4412 247.778 99.2391 247.778C99.0369 247.777 98.8389 247.833 98.6689 247.939C96.5792 249.112 94.4868 250.281 92.3917 251.448C90.7108 252.388 89.0301 253.328 87.3493 254.268C87.1698 254.358 87.021 254.496 86.9208 254.665C86.8206 254.835 86.7732 255.029 86.7844 255.224C86.793 258.549 86.7978 261.874 86.799 265.2C86.799 265.274 86.7679 265.356 86.8348 265.422C86.4368 266.062 85.9994 266.677 85.5803 267.303C85.3703 267.616 85.1595 267.929 84.9479 268.242C84.914 268.292 84.875 268.338 84.8081 268.427C84.8031 268.322 84.7979 268.264 84.7979 268.207C84.7979 263.822 84.7987 259.436 84.8003 255.051C84.7893 254.564 84.9172 254.084 85.1702 253.663C85.4231 253.242 85.7913 252.896 86.2343 252.664C87.6956 251.826 89.1763 251.019 90.6473 250.196C91.8885 249.502 93.1254 248.803 94.3658 248.108C95.5226 247.459 96.6677 246.791 97.8442 246.178C98.2948 245.935 98.8045 245.814 99.32 245.827C99.8356 245.84 100.338 245.987 100.775 246.251C101.72 246.769 102.662 247.297 103.604 247.82C104.491 248.313 105.378 248.806 106.264 249.299C107.081 249.753 107.898 250.207 108.716 250.66C109.526 251.11 110.337 251.559 111.148 252.008C111.504 252.206 111.86 252.404 112.214 252.605C112.605 252.819 112.941 253.115 113.197 253.471C113.453 253.827 113.623 254.234 113.694 254.662C113.711 254.786 113.716 254.911 113.709 255.035C113.709 259.35 113.71 263.666 113.711 267.981C113.714 268.391 113.622 268.796 113.443 269.168C113.264 269.54 113.002 269.869 112.676 270.131C112.49 270.268 112.29 270.387 112.079 270.485C110.868 271.167 109.656 271.846 108.441 272.523C107.151 273.243 105.86 273.963 104.569 274.681C103.328 275.375 102.089 276.072 100.851 276.771C100.543 276.971 100.196 277.11 99.8309 277.177C99.2249 277.292 98.5969 277.214 98.0398 276.957C97.4223 276.638 96.8208 276.291 96.212 275.954C95.3945 275.501 94.5775 275.047 93.7608 274.592C93.5301 274.464 93.2992 274.337 93.0682 274.21C92.9833 274.164 92.9254 274.116 92.9916 274.009C93.2971 273.515 93.5978 273.018 93.9018 272.523C93.9125 272.505 93.9399 272.497 93.9595 272.483C94.2428 272.611 94.5171 272.757 94.7805 272.919C96.1144 273.656 97.4463 274.397 98.7761 275.14C98.9298 275.234 99.1082 275.283 99.29 275.281C99.4717 275.279 99.649 275.227 99.8006 275.13C101.064 274.414 102.333 273.709 103.6 273C103.663 272.965 103.727 272.933 103.79 272.9C103.91 272.752 104.069 272.64 104.251 272.575C105.396 271.942 106.531 271.296 107.676 270.665C107.771 270.612 107.857 270.531 107.982 270.545L109.103 269.918C109.171 269.779 109.317 269.734 109.439 269.666C110.003 269.352 110.562 269.029 111.131 268.724C111.296 268.641 111.432 268.513 111.523 268.356C111.615 268.2 111.657 268.021 111.646 267.842C111.652 267.291 111.646 266.739 111.649 266.188C111.629 266.087 111.65 265.982 111.707 265.895Z" fill="#96BEDC"/>
<path d="M111.709 265.894C111.712 266.578 111.728 267.264 111.712 267.947C111.716 268.107 111.675 268.265 111.592 268.404C111.509 268.542 111.388 268.656 111.242 268.732C110.529 269.123 109.828 269.535 109.108 269.914C108.822 269.41 108.491 268.929 108.178 268.439C106.553 265.895 104.926 263.353 103.297 260.812C103.199 260.66 103.11 260.501 103.001 260.358C102.965 260.316 102.946 260.264 102.946 260.211C102.946 260.157 102.965 260.105 103.001 260.064C103.39 259.436 103.772 258.804 104.157 258.174L105.225 256.424C105.244 256.382 105.277 256.348 105.319 256.328C105.505 256.604 105.693 256.883 105.88 257.162C107.003 258.852 108.127 260.542 109.25 262.231C110.012 263.378 110.774 264.524 111.535 265.671C111.577 265.756 111.636 265.832 111.709 265.894Z" fill="#28A0F0"/>
<path d="M107.986 270.542C107.522 270.836 107.029 271.086 106.551 271.359C105.684 271.851 104.812 272.334 103.942 272.821C103.892 272.848 103.842 272.873 103.794 272.9C103.783 272.822 103.749 272.749 103.695 272.69C102.92 271.515 102.145 270.339 101.371 269.164C100.734 268.199 100.095 267.235 99.4549 266.272C99.4116 266.222 99.3864 266.159 99.3834 266.094C99.3803 266.029 99.3996 265.965 99.4381 265.911C100.294 264.519 101.146 263.125 101.995 261.729C102.015 261.697 102.032 261.659 102.082 261.649C102.151 261.664 102.168 261.731 102.201 261.781C103.744 264.128 105.286 266.474 106.828 268.82C107.157 269.32 107.483 269.82 107.813 270.319C107.855 270.403 107.914 270.479 107.985 270.543L107.986 270.542Z" fill="#28A0F0"/>
<path d="M154.9 227.198V297.073C154.9 303.228 158.194 308.913 163.534 311.974L224.512 346.935C229.804 349.969 236.307 349.969 241.599 346.935L302.577 311.974C307.917 308.913 311.211 303.228 311.211 297.073V227.198C311.211 221.129 308.008 215.51 302.785 212.418L241.807 176.313C236.41 173.118 229.701 173.118 224.304 176.313L163.326 212.418C158.103 215.51 154.9 221.129 154.9 227.198Z" fill="#027C00"/>
<path d="M232.97 187.278L168.985 224.55L232.97 260.796L296.782 224.55L232.97 187.278Z" fill="url(#paint17_linear_47_264)"/>
<path d="M233.227 261.483L233.194 335.095L297.172 298.603L297.233 225.097L233.227 261.483Z" fill="url(#paint18_linear_47_264)"/>
<path d="M232.54 261.483L232.648 335.095L168.669 298.603L168.608 225.097L232.54 261.483Z" fill="url(#paint19_linear_47_264)"/>
<path fill-rule="evenodd" clip-rule="evenodd" d="M311.211 127.502C321.632 127.502 330.105 135.961 330.105 146.382C330.105 156.804 321.632 165.262 311.211 165.262C300.789 165.262 292.316 156.804 292.316 146.382C292.316 135.961 300.789 127.502 311.211 127.502Z" fill="#48A9A6"/>
<path fill-rule="evenodd" clip-rule="evenodd" d="M301.512 140.581H309.277V136.699H301.512V140.581Z" fill="white"/>
<path fill-rule="evenodd" clip-rule="evenodd" d="M313.144 140.581H320.909V136.699H313.144V140.581Z" fill="white"/>
<path fill-rule="evenodd" clip-rule="evenodd" d="M320.909 148.331H317.027V152.213H313.144V156.095H320.909V148.331Z" fill="white"/>
<path fill-rule="evenodd" clip-rule="evenodd" d="M309.277 156.095V152.213H305.395V148.331H301.512V156.095H309.277Z" fill="white"/>
<path d="M148.346 157.878C153.344 157.878 157.395 153.827 157.395 148.829C157.395 143.83 153.344 139.779 148.346 139.779C143.347 139.779 139.296 143.83 139.296 148.829C139.296 153.827 143.347 157.878 148.346 157.878ZM148.346 161.169C141.531 161.169 136.006 155.644 136.006 148.829C136.006 142.014 141.531 136.488 148.346 136.488C155.161 136.488 160.686 142.014 160.686 148.829C160.686 155.644 155.161 161.169 148.346 161.169Z" fill="#FBCC5C"/>
<path d="M154.927 151.297C159.926 151.297 163.977 147.246 163.977 142.247C163.977 137.249 159.926 133.198 154.927 133.198C149.929 133.198 145.878 137.249 145.878 142.247C145.878 147.246 149.929 151.297 154.927 151.297ZM154.927 154.588C148.112 154.588 142.587 149.062 142.587 142.247C142.587 135.432 148.112 129.907 154.927 129.907C161.743 129.907 167.268 135.432 167.268 142.247C167.268 149.062 161.743 154.588 154.927 154.588Z" fill="#35D07F"/>
<path d="M155.335 154.588C156.191 153.551 156.803 152.337 157.129 151.03C158.432 150.704 159.646 150.092 160.686 149.237C160.64 150.747 160.314 152.235 159.725 153.63C158.333 154.216 156.846 154.541 155.335 154.588ZM146.144 140.046C144.841 140.372 143.627 140.984 142.587 141.839C142.633 140.329 142.959 138.841 143.548 137.449C144.94 136.864 146.431 136.538 147.938 136.488C147.082 137.525 146.47 138.739 146.144 140.046Z" fill="#5EA33B"/>
<path d="M366.864 278.66C376.92 278.66 385.072 270.508 385.072 260.452C385.072 250.396 376.92 242.244 366.864 242.244C356.808 242.244 348.656 250.396 348.656 260.452C348.656 270.508 356.808 278.66 366.864 278.66Z" fill="#FF0420"/>
<path d="M361.557 265.291C360.473 265.291 359.585 265.036 358.892 264.526C358.209 264.007 357.867 263.269 357.867 262.312C357.867 262.112 357.89 261.866 357.936 261.574C358.054 260.918 358.223 260.13 358.441 259.21C359.061 256.705 360.66 255.452 363.238 255.452C363.94 255.452 364.568 255.571 365.124 255.807C365.68 256.035 366.117 256.381 366.436 256.846C366.755 257.301 366.914 257.848 366.914 258.486C366.914 258.677 366.891 258.919 366.846 259.21C366.709 260.021 366.545 260.809 366.354 261.574C366.035 262.822 365.484 263.756 364.7 264.376C363.917 264.986 362.869 265.291 361.557 265.291ZM361.748 263.324C362.259 263.324 362.691 263.173 363.047 262.873C363.411 262.572 363.671 262.112 363.826 261.492C364.035 260.636 364.195 259.889 364.304 259.251C364.34 259.06 364.359 258.864 364.359 258.663C364.359 257.834 363.926 257.42 363.06 257.42C362.55 257.42 362.113 257.57 361.748 257.871C361.393 258.172 361.138 258.632 360.983 259.251C360.819 259.862 360.655 260.609 360.491 261.492C360.455 261.674 360.437 261.866 360.437 262.066C360.437 262.904 360.874 263.324 361.748 263.324Z" fill="white"/>
<path d="M367.542 265.155C367.441 265.155 367.364 265.123 367.309 265.059C367.264 264.986 367.25 264.904 367.268 264.813L369.154 255.93C369.172 255.83 369.222 255.748 369.304 255.684C369.386 255.621 369.473 255.589 369.564 255.589H373.199C374.21 255.589 375.021 255.798 375.632 256.217C376.251 256.636 376.561 257.242 376.561 258.035C376.561 258.263 376.534 258.499 376.479 258.745C376.251 259.793 375.791 260.568 375.099 261.069C374.415 261.57 373.477 261.82 372.284 261.82H370.439L369.81 264.813C369.792 264.913 369.742 264.995 369.66 265.059C369.578 265.123 369.491 265.155 369.4 265.155H367.542ZM372.379 259.934C372.762 259.934 373.094 259.83 373.377 259.62C373.668 259.41 373.86 259.11 373.951 258.718C373.978 258.563 373.992 258.427 373.992 258.308C373.992 258.044 373.914 257.843 373.759 257.707C373.605 257.561 373.34 257.488 372.967 257.488H371.327L370.808 259.934H372.379Z" fill="white"/>
<circle cx="232.884" cy="115.478" r="18.8947" fill="white"/>
<path d="M232.803 100.158L219.606 107.781V123.022L232.803 130.64L245.99 123.022V107.781L232.803 100.158ZM242.083 120.764L232.803 126.123L223.518 120.764V110.034L232.803 104.675L242.083 110.034V120.764Z" fill="#002D74"/>
<path style="mix-blend-mode:multiply" d="M232.803 130.64L245.989 123.022V107.781L232.803 100.158V104.68L242.083 110.039V120.769L232.803 126.123V130.64Z" fill="url(#paint20_linear_47_264)"/>
<path style="mix-blend-mode:multiply" d="M232.793 100.158L219.606 107.776V123.017L232.793 130.64V126.118L223.513 120.759V110.029L232.793 104.675V100.158Z" fill="url(#paint21_linear_47_264)"/>
<path d="M238.957 118.96L232.798 122.516L226.634 118.96V111.843L232.798 108.282L238.957 111.843L236.393 113.325L232.798 111.245L229.203 113.325V117.473L232.798 119.553L236.393 117.473L238.957 118.96Z" fill="#002D74"/>
<path d="M165.063 393.48C174.052 393.48 181.338 386.193 181.338 377.205C181.338 368.217 174.052 360.931 165.063 360.931C156.075 360.931 148.789 368.217 148.789 377.205C148.789 386.193 156.075 393.48 165.063 393.48Z" fill="url(#paint22_linear_47_264)"/>
<path d="M164.158 358.374C159.302 358.661 154.924 360.662 151.594 364.113C148.64 367.173 146.808 371.119 146.398 375.311C146.267 376.629 146.287 378.308 146.444 379.534C146.687 381.414 147.17 383.164 147.904 384.82C149.953 389.449 153.805 393.09 158.53 394.862C160.174 395.48 161.861 395.854 163.712 396.011C164.301 396.061 166.161 396.052 166.753 395.999C170.025 395.697 172.929 394.683 175.586 392.917C180.154 389.881 183.164 385.042 183.864 379.607C184.033 378.287 184.057 376.667 183.922 375.311C183.731 373.373 183.205 371.377 182.416 369.591C180.56 365.394 177.198 361.979 173.049 360.075C170.954 359.112 168.775 358.555 166.463 358.393C166.004 358.362 164.566 358.349 164.158 358.374ZM166.043 365.293C166.451 365.38 166.589 365.43 168.671 366.273C169.695 366.688 171.659 367.482 173.04 368.039C174.42 368.597 175.615 369.087 175.694 369.13C175.88 369.227 176.138 369.47 176.262 369.666C176.315 369.75 176.387 369.902 176.423 370.006C176.484 370.175 176.491 370.226 176.488 370.508C176.488 370.786 176.481 370.841 176.423 371.001C176.274 371.416 175.994 371.732 175.627 371.903C175.518 371.956 174.099 372.533 172.231 373.288C171.169 373.718 170.267 374.087 168.739 374.715C167.148 375.371 166.854 375.48 166.405 375.576C165.889 375.687 165.592 375.719 165.039 375.716C164.455 375.716 164.045 375.666 163.548 375.538C163.096 375.422 162.92 375.354 161.298 374.671C160.456 374.317 158.974 373.704 158.004 373.308C154.813 372.009 154.536 371.893 154.41 371.814C154.343 371.77 154.225 371.669 154.15 371.587C153.57 370.959 153.749 369.919 154.504 369.526C154.599 369.478 155.95 368.872 157.509 368.179C159.068 367.489 160.391 366.9 160.446 366.876C160.958 366.642 163.432 365.549 163.591 365.488C163.704 365.442 163.905 365.38 164.038 365.346C164.477 365.232 164.67 365.211 165.232 365.22C165.676 365.228 165.792 365.24 166.043 365.293ZM174.295 375.453C175.038 375.755 175.69 376.028 175.745 376.059C176.083 376.257 176.365 376.629 176.469 377.012C176.525 377.222 176.525 377.599 176.469 377.809C176.368 378.185 176.088 378.559 175.772 378.748C175.697 378.791 174.567 379.259 173.264 379.788C171.958 380.314 170.071 381.081 169.07 381.489C167.103 382.29 166.984 382.336 166.547 382.445C165.56 382.686 164.527 382.686 163.557 382.44C163.108 382.327 162.925 382.257 161.081 381.489C159.546 380.852 156.836 379.739 155.241 379.095C154.517 378.803 154.461 378.776 154.29 378.637C153.551 378.04 153.686 376.851 154.538 376.423C154.833 376.274 157.594 375.05 157.63 375.053C157.649 375.053 158.453 375.374 159.416 375.765C162.17 376.884 162.283 376.928 162.602 377.032C163.106 377.196 163.577 377.302 164.146 377.379C164.455 377.42 165.652 377.42 165.956 377.379C166.861 377.254 167.356 377.118 168.365 376.711C170.612 375.81 172.446 375.07 172.641 374.987C172.767 374.934 172.888 374.896 172.907 374.898C172.926 374.903 173.551 375.154 174.295 375.453ZM174.546 381.996C175.149 382.24 175.702 382.476 175.774 382.52C175.846 382.563 175.972 382.664 176.054 382.747C176.534 383.227 176.648 383.939 176.344 384.561C176.245 384.764 176.013 385.025 175.817 385.155C175.747 385.201 174.295 385.845 172.591 386.584C170.887 387.322 169.205 388.051 168.852 388.206C167.346 388.86 167.035 388.971 166.306 389.101C165.831 389.185 165.502 389.207 164.899 389.193C164.305 389.181 164.047 389.152 163.543 389.041C162.956 388.91 162.573 388.758 159.802 387.547C158.323 386.9 156.65 386.171 156.085 385.925C154.558 385.261 154.517 385.242 154.352 385.129C153.662 384.643 153.612 383.639 154.249 383.051C154.391 382.923 154.488 382.874 155.813 382.286L157.082 381.721L159.679 382.773C161.108 383.352 162.401 383.866 162.553 383.919C164.117 384.446 165.84 384.455 167.457 383.948C167.655 383.886 173.445 381.571 173.45 381.552C173.45 381.549 173.945 381.75 174.546 381.996Z" fill="#25435A"/>
<path d="M406.206 151.667C405.793 151.84 405.619 152.294 405.793 152.715C406.057 153.36 407.015 153.31 407.238 152.633C407.436 152.022 406.784 151.419 406.206 151.667Z" fill="#E1137B"/>
<path d="M409.138 151.65C408.725 151.799 408.51 152.228 408.642 152.633C408.832 153.203 407.461 153.161 424.649 153.161H440.21L440.449 152.922C440.846 152.525 440.705 151.865 440.185 151.683C439.995 151.617 435.609 151.592 424.591 151.6C416.158 151.6 409.204 151.625 409.138 151.65Z" fill="#E1137B"/>
<path d="M400.003 155.309C399.681 155.441 399.458 155.813 399.507 156.135C399.648 157.043 401.043 157.01 401.043 156.093C401.043 155.705 400.928 155.507 400.63 155.35C400.366 155.21 400.259 155.201 400.003 155.309Z" fill="#E1137B"/>
<path d="M402.811 155.342C402.34 155.548 402.249 156.193 402.629 156.606L402.803 156.796H414.316H425.83L426.028 156.589C426.326 156.3 426.317 155.747 426.02 155.466L425.805 155.268L414.44 155.251C405.058 155.235 403.026 155.251 402.811 155.342Z" fill="#E1137B"/>
<path d="M406.181 158.984C405.743 159.174 405.57 159.802 405.867 160.174C405.917 160.24 406.082 160.339 406.23 160.405C406.453 160.496 406.536 160.496 406.784 160.388C407.428 160.124 407.428 159.249 406.792 158.984C406.453 158.836 406.519 158.836 406.181 158.984Z" fill="#E1137B"/>
<path d="M409.179 158.918C408.948 158.976 408.667 159.257 408.609 159.488C408.576 159.595 408.609 159.818 408.675 159.975C408.915 160.554 407.924 160.512 422.848 160.512C437.294 160.512 436.741 160.529 436.964 160.116C437.121 159.818 437.071 159.381 436.856 159.133L436.658 158.902L422.997 158.893C415.489 158.885 409.27 158.893 409.179 158.918Z" fill="#E1137B"/>
<path d="M401.332 162.784C401.192 162.924 401.126 163.073 401.126 163.279C401.126 163.684 401.25 163.89 401.588 164.031C402.216 164.295 402.844 163.667 402.58 163.04C402.439 162.701 402.233 162.577 401.828 162.577C401.621 162.577 401.473 162.643 401.332 162.784Z" fill="#E1137B"/>
<path d="M404.24 162.742C403.802 163.089 403.893 163.733 404.43 163.998C404.694 164.138 405.14 164.146 410.005 164.146C413.391 164.146 415.398 164.113 415.597 164.064C415.977 163.956 416.158 163.709 416.158 163.296C416.158 163.073 416.1 162.924 415.952 162.784L415.754 162.577H410.104C404.562 162.577 404.446 162.577 404.24 162.742Z" fill="#E1137B"/>
<path d="M418.116 162.742C417.678 163.089 417.769 163.733 418.306 163.998C418.578 164.138 419.297 164.146 429.77 164.146C442.159 164.146 441.407 164.179 441.638 163.61C441.746 163.362 441.746 163.287 441.647 163.04C441.581 162.883 441.457 162.718 441.366 162.668C441.242 162.602 437.798 162.577 429.761 162.577C418.429 162.577 418.322 162.577 418.116 162.742Z" fill="#E1137B"/>
<path d="M419.619 166.451C419.074 167.004 419.594 167.913 420.362 167.739C420.709 167.665 420.949 167.334 420.949 166.955C420.949 166.707 420.899 166.591 420.693 166.426C420.337 166.129 419.941 166.137 419.619 166.451Z" fill="#E1137B"/>
<path d="M422.51 166.451C422.188 166.773 422.188 167.112 422.51 167.467L422.749 167.739L429.803 167.764C434.99 167.781 436.906 167.756 437.079 167.69C437.583 167.483 437.724 166.789 437.344 166.418L437.145 166.211H429.951H422.749L422.51 166.451Z" fill="#E1137B"/>
<path d="M411.31 169.969C411.021 170.168 410.913 170.605 411.079 170.944C411.318 171.456 411.888 171.563 412.284 171.175C412.631 170.828 412.623 170.358 412.268 170.06C411.979 169.812 411.582 169.779 411.31 169.969Z" fill="#E1137B"/>
<path d="M414.135 170.027C414.011 170.143 413.903 170.341 413.87 170.523C413.829 170.795 413.854 170.861 414.118 171.126L414.407 171.415H421.51H428.613L428.861 171.208C428.993 171.093 429.125 170.903 429.15 170.779C429.208 170.49 429.026 170.052 428.812 169.936C428.688 169.87 426.458 169.845 421.494 169.845H414.349L414.135 170.027Z" fill="#E1137B"/>
<path d="M437.55 149.403C438.143 149.403 438.628 148.922 438.583 148.331C438.328 145.01 436.895 141.875 434.523 139.504C431.898 136.879 428.337 135.404 424.624 135.404C420.911 135.404 417.35 136.879 414.725 139.504C412.353 141.875 410.92 145.01 410.665 148.331C410.62 148.922 411.105 149.403 411.698 149.403L424.624 149.403H437.55Z" fill="#53CBC8"/>
<path d="M254.183 475.68C254.183 487.348 244.724 496.807 233.055 496.807C221.387 496.807 211.928 487.348 211.928 475.68C211.928 464.011 221.387 454.552 233.055 454.552C244.724 454.552 254.183 464.011 254.183 475.68Z" fill="white"/>
<path d="M220.379 463.771C220.379 463.347 220.723 463.003 221.147 463.003H228.062C228.486 463.003 228.83 463.347 228.83 463.771V470.686C228.83 471.11 228.486 471.454 228.062 471.454H221.147C220.723 471.454 220.379 471.11 220.379 470.686V463.771Z" fill="black"/>
<path d="M237.281 463.771C237.281 463.347 237.625 463.003 238.049 463.003H244.964C245.388 463.003 245.732 463.347 245.732 463.771V470.686C245.732 471.11 245.388 471.454 244.964 471.454H238.049C237.625 471.454 237.281 471.11 237.281 470.686V463.771Z" fill="black"/>
<path d="M237.281 480.673C237.281 480.249 237.625 479.905 238.049 479.905H244.964C245.388 479.905 245.732 480.249 245.732 480.673V487.588C245.732 488.012 245.388 488.356 244.964 488.356H238.049C237.625 488.356 237.281 488.012 237.281 487.588V480.673Z" fill="black"/>
<path d="M220.379 480.673C220.379 480.249 220.723 479.905 221.147 479.905H228.062C228.486 479.905 228.83 480.249 228.83 480.673V487.588C228.83 488.012 228.486 488.356 228.062 488.356H221.147C220.723 488.356 220.379 488.012 220.379 487.588V480.673Z" fill="black"/>
<path d="M228.83 472.222C228.83 471.798 229.174 471.454 229.598 471.454H236.513C236.937 471.454 237.281 471.798 237.281 472.222V479.137C237.281 479.561 236.937 479.905 236.513 479.905H229.598C229.174 479.905 228.83 479.561 228.83 479.137V472.222Z" fill="black"/>
<defs>
<filter id="filter0_b_47_264" x="383.586" y="328.822" width="78.7347" height="78.7347" filterUnits="userSpaceOnUse" color-interpolation-filters="sRGB">
<feFlood flood-opacity="0" result="BackgroundImageFix"/>
<feGaussianBlur in="BackgroundImage" stdDeviation="4.5917"/>
<feComposite in2="SourceAlpha" operator="in" result="effect1_backgroundBlur_47_264"/>
<feBlend mode="normal" in="SourceGraphic" in2="effect1_backgroundBlur_47_264" result="shape"/>
</filter>
<filter id="filter1_b_47_264" x="193.538" y="436.143" width="78.7347" height="78.7347" filterUnits="userSpaceOnUse" color-interpolation-filters="sRGB">
<feFlood flood-opacity="0" result="BackgroundImageFix"/>
<feGaussianBlur in="BackgroundImage" stdDeviation="4.5917"/>
<feComposite in2="SourceAlpha" operator="in" result="effect1_backgroundBlur_47_264"/>
<feBlend mode="normal" in="SourceGraphic" in2="effect1_backgroundBlur_47_264" result="shape"/>
</filter>
<filter id="filter2_b_47_264" x="3.49142" y="328.822" width="78.7347" height="78.7347" filterUnits="userSpaceOnUse" color-interpolation-filters="sRGB">
<feFlood flood-opacity="0" result="BackgroundImageFix"/>
<feGaussianBlur in="BackgroundImage" stdDeviation="4.5917"/>
<feComposite in2="SourceAlpha" operator="in" result="effect1_backgroundBlur_47_264"/>
<feBlend mode="normal" in="SourceGraphic" in2="effect1_backgroundBlur_47_264" result="shape"/>
</filter>
<filter id="filter3_b_47_264" x="332.161" y="225.973" width="68.6733" height="68.6734" filterUnits="userSpaceOnUse" color-interpolation-filters="sRGB">
<feFlood flood-opacity="0" result="BackgroundImageFix"/>
<feGaussianBlur in="BackgroundImage" stdDeviation="4.5917"/>
<feComposite in2="SourceAlpha" operator="in" result="effect1_backgroundBlur_47_264"/>
<feBlend mode="normal" in="SourceGraphic" in2="effect1_backgroundBlur_47_264" result="shape"/>
</filter>
<filter id="filter4_b_47_264" x="267.321" y="342.238" width="68.6734" height="68.6734" filterUnits="userSpaceOnUse" color-interpolation-filters="sRGB">
<feFlood flood-opacity="0" result="BackgroundImageFix"/>
<feGaussianBlur in="BackgroundImage" stdDeviation="4.5917"/>
<feComposite in2="SourceAlpha" operator="in" result="effect1_backgroundBlur_47_264"/>
<feBlend mode="normal" in="SourceGraphic" in2="effect1_backgroundBlur_47_264" result="shape"/>
</filter>
<filter id="filter5_b_47_264" x="193.538" y="-8.79082" width="78.7347" height="78.7347" filterUnits="userSpaceOnUse" color-interpolation-filters="sRGB">
<feFlood flood-opacity="0" result="BackgroundImageFix"/>
<feGaussianBlur in="BackgroundImage" stdDeviation="4.5917"/>
<feComposite in2="SourceAlpha" operator="in" result="effect1_backgroundBlur_47_264"/>
<feBlend mode="normal" in="SourceGraphic" in2="effect1_backgroundBlur_47_264" result="shape"/>
</filter>
<filter id="filter6_b_47_264" x="383.586" y="115.298" width="78.7347" height="78.7347" filterUnits="userSpaceOnUse" color-interpolation-filters="sRGB">
<feFlood flood-opacity="0" result="BackgroundImageFix"/>
<feGaussianBlur in="BackgroundImage" stdDeviation="4.5917"/>
<feComposite in2="SourceAlpha" operator="in" result="effect1_backgroundBlur_47_264"/>
<feBlend mode="normal" in="SourceGraphic" in2="effect1_backgroundBlur_47_264" result="shape"/>
</filter>
<filter id="filter7_b_47_264" x="276.949" y="112.135" width="68.6734" height="68.6734" filterUnits="userSpaceOnUse" color-interpolation-filters="sRGB">
<feFlood flood-opacity="0" result="BackgroundImageFix"/>
<feGaussianBlur in="BackgroundImage" stdDeviation="4.5917"/>
<feComposite in2="SourceAlpha" operator="in" result="effect1_backgroundBlur_47_264"/>
<feBlend mode="normal" in="SourceGraphic" in2="effect1_backgroundBlur_47_264" result="shape"/>
</filter>
<filter id="filter8_b_47_264" x="198.622" y="81.2166" width="68.6734" height="68.6734" filterUnits="userSpaceOnUse" color-interpolation-filters="sRGB">
<feFlood flood-opacity="0" result="BackgroundImageFix"/>
<feGaussianBlur in="BackgroundImage" stdDeviation="4.5917"/>
<feComposite in2="SourceAlpha" operator="in" result="effect1_backgroundBlur_47_264"/>
<feBlend mode="normal" in="SourceGraphic" in2="effect1_backgroundBlur_47_264" result="shape"/>
</filter>
<filter id="filter9_b_47_264" x="64.9772" y="225.973" width="68.6734" height="68.6734" filterUnits="userSpaceOnUse" color-interpolation-filters="sRGB">
<feFlood flood-opacity="0" result="BackgroundImageFix"/>
<feGaussianBlur in="BackgroundImage" stdDeviation="4.5917"/>
<feComposite in2="SourceAlpha" operator="in" result="effect1_backgroundBlur_47_264"/>
<feBlend mode="normal" in="SourceGraphic" in2="effect1_backgroundBlur_47_264" result="shape"/>
</filter>
<linearGradient id="paint0_linear_47_264" x1="96.6102" y1="112.703" x2="176.517" y2="59.8585" gradientUnits="userSpaceOnUse">
<stop stop-color="#0CEE4B"/>
<stop offset="1" stop-color="#0AEDB6"/>
</linearGradient>
<linearGradient id="paint1_linear_47_264" x1="96.7563" y1="409.888" x2="176.663" y2="462.733" gradientUnits="userSpaceOnUse">
<stop stop-color="#0CEE4B"/>
<stop offset="1" stop-color="#0AEDB6"/>
</linearGradient>
<linearGradient id="paint2_linear_47_264" x1="384.076" y1="112.672" x2="304.169" y2="59.828" gradientUnits="userSpaceOnUse">
<stop stop-color="#0CEE4B"/>
<stop offset="1" stop-color="#0AEDB6"/>
</linearGradient>
<linearGradient id="paint3_linear_47_264" x1="284.67" y1="133.333" x2="263.042" y2="123.937" gradientUnits="userSpaceOnUse">
<stop stop-color="#0CEE4B"/>
<stop offset="1" stop-color="#0AEDB6"/>
</linearGradient>
<linearGradient id="paint4_linear_47_264" x1="180.406" y1="133.333" x2="202.035" y2="123.937" gradientUnits="userSpaceOnUse">
<stop stop-color="#0CEE4B"/>
<stop offset="1" stop-color="#0AEDB6"/>
</linearGradient>
<linearGradient id="paint5_linear_47_264" x1="321.635" y1="215.603" x2="386.522" y2="179.64" gradientUnits="userSpaceOnUse">
<stop stop-color="#0CEE4B"/>
<stop offset="1" stop-color="#0AEDB6"/>
</linearGradient>
<linearGradient id="paint6_linear_47_264" x1="143.977" y1="309.884" x2="79.0893" y2="345.847" gradientUnits="userSpaceOnUse">
<stop stop-color="#0CEE4B"/>
<stop offset="1" stop-color="#0AEDB6"/>
</linearGradient>
<linearGradient id="paint7_linear_47_264" x1="143.977" y1="215.603" x2="79.0893" y2="179.64" gradientUnits="userSpaceOnUse">
<stop stop-color="#0CEE4B"/>
<stop offset="1" stop-color="#0AEDB6"/>
</linearGradient>
<linearGradient id="paint8_linear_47_264" x1="321.635" y1="309.884" x2="386.522" y2="345.847" gradientUnits="userSpaceOnUse">
<stop stop-color="#0CEE4B"/>
<stop offset="1" stop-color="#0AEDB6"/>
</linearGradient>
<linearGradient id="paint9_linear_47_264" x1="425.697" y1="312.085" x2="425.855" y2="216.285" gradientUnits="userSpaceOnUse">
<stop stop-color="#0CEE4B"/>
<stop offset="1" stop-color="#0AEDB6"/>
</linearGradient>
<linearGradient id="paint10_linear_47_264" x1="234.619" y1="433.674" x2="234.735" y2="362.956" gradientUnits="userSpaceOnUse">
<stop stop-color="#0CEE4B"/>
<stop offset="1" stop-color="#0AEDB6"/>
</linearGradient>
<linearGradient id="paint11_linear_47_264" x1="233.442" y1="168.199" x2="233.481" y2="145.071" gradientUnits="userSpaceOnUse">
<stop stop-color="#0CEE4B"/>
<stop offset="1" stop-color="#0AEDB6"/>
</linearGradient>
<linearGradient id="paint12_linear_47_264" x1="280.268" y1="192.42" x2="292.979" y2="173.098" gradientUnits="userSpaceOnUse">
<stop stop-color="#0CEE4B"/>
<stop offset="1" stop-color="#0AEDB6"/>
</linearGradient>
<linearGradient id="paint13_linear_47_264" x1="182.491" y1="192.42" x2="169.78" y2="173.098" gradientUnits="userSpaceOnUse">
<stop stop-color="#0CEE4B"/>
<stop offset="1" stop-color="#0AEDB6"/>
</linearGradient>
<linearGradient id="paint14_linear_47_264" x1="233.442" y1="85.7497" x2="233.481" y2="62.622" gradientUnits="userSpaceOnUse">
<stop stop-color="#0CEE4B"/>
<stop offset="1" stop-color="#0AEDB6"/>
</linearGradient>
<linearGradient id="paint15_linear_47_264" x1="44.8859" y1="312.085" x2="45.0437" y2="216.285" gradientUnits="userSpaceOnUse">
<stop stop-color="#0CEE4B"/>
<stop offset="1" stop-color="#0AEDB6"/>
</linearGradient>
<linearGradient id="paint16_linear_47_264" x1="384.222" y1="409.919" x2="304.315" y2="462.763" gradientUnits="userSpaceOnUse">
<stop stop-color="#0CEE4B"/>
<stop offset="1" stop-color="#0AEDB6"/>
</linearGradient>
<linearGradient id="paint17_linear_47_264" x1="232.884" y1="187.278" x2="232.884" y2="260.796" gradientUnits="userSpaceOnUse">
<stop stop-color="#6DED76"/>
<stop offset="1" stop-color="#15A351"/>
</linearGradient>
<linearGradient id="paint18_linear_47_264" x1="233.298" y1="261.515" x2="297.129" y2="298.677" gradientUnits="userSpaceOnUse">
<stop stop-color="#6DED76"/>
<stop offset="1" stop-color="#15A351"/>
</linearGradient>
<linearGradient id="paint19_linear_47_264" x1="232.197" y1="334.657" x2="169.501" y2="227.129" gradientUnits="userSpaceOnUse">
<stop stop-color="#15A351"/>
<stop offset="1" stop-color="#6DED76"/>
</linearGradient>
<linearGradient id="paint20_linear_47_264" x1="239.396" y1="130.64" x2="239.396" y2="115.399" gradientUnits="userSpaceOnUse">
<stop stop-color="#002D74"/>
<stop offset="1" stop-color="#002D74" stop-opacity="0"/>
</linearGradient>
<linearGradient id="paint21_linear_47_264" x1="226.2" y1="100.158" x2="226.2" y2="115.399" gradientUnits="userSpaceOnUse">
<stop stop-color="#002D74"/>
<stop offset="1" stop-color="#002D74" stop-opacity="0"/>
</linearGradient>
<linearGradient id="paint22_linear_47_264" x1="154.817" y1="364.155" x2="174.22" y2="390.752" gradientUnits="userSpaceOnUse">
<stop stop-color="#B2FDBF"/>
<stop offset="1" stop-color="#E7FD98"/>
</linearGradient>
</defs>
</svg>
